<svg width="103" height="104" viewBox="0 0 103 104" fill="none" xmlns="http://www.w3.org/2000/svg">
<path d="M0 8.68842C0 3.94806 3.84283 0.105225 8.5832 0.105225H94.4152C99.1555 0.105225 102.998 3.94805 102.998 8.68842V38.3395C102.998 43.0798 99.1555 46.9227 94.4152 46.9227H8.58319C3.84283 46.9227 0 43.0798 0 38.3395V8.68842Z" fill="#F9A619"/>
<path d="M56.1826 64.8716C56.1826 60.1313 60.0254 56.2884 64.7658 56.2884H94.4168C99.1572 56.2884 103 60.1313 103 64.8716V94.5227C103 99.263 99.1572 103.106 94.4168 103.106H64.7658C60.0254 103.106 56.1826 99.263 56.1826 94.5227V64.8716Z" fill="#3B85DB"/>
<path d="M0 79.6972C0 66.7689 10.4804 56.2884 23.4087 56.2884C36.337 56.2884 46.8174 66.7689 46.8174 79.6972C46.8174 92.6254 36.337 103.106 23.4087 103.106C10.4804 103.106 0 92.6254 0 79.6972Z" fill="#EB3669"/>
</svg>
