<svg width="60" height="60" viewBox="0 0 60 60" fill="none" xmlns="http://www.w3.org/2000/svg">
<path d="M33.0488 42.7802C33.0488 39.3728 33.0488 37.6692 33.7118 36.3677C34.2952 35.2231 35.226 34.2923 36.3706 33.709C37.6721 33.046 39.3757 33.046 42.7828 33.046H49.0957C52.5031 33.046 54.2067 33.046 55.508 33.709C56.653 34.2923 57.5836 35.2231 58.1667 36.3677C58.8301 37.6692 58.8301 39.3728 58.8301 42.7802V49.0928C58.8301 52.5002 58.8301 54.2038 58.1667 55.5053C57.5836 56.6501 56.653 57.5807 55.508 58.1641C54.2067 58.8272 52.5031 58.8272 49.0957 58.8272H42.7828C39.3757 58.8272 37.6721 58.8272 36.3706 58.1641C35.226 57.5807 34.2952 56.6501 33.7118 55.5053C33.0488 54.2038 33.0488 52.5002 33.0488 49.0928V42.7802Z" fill="#386AF5"/>
<path d="M1.1709 45.9366C1.1709 38.8172 6.94222 33.046 14.0615 33.046C21.1808 33.046 26.9521 38.8172 26.9521 45.9366C26.9521 53.056 21.1808 58.8272 14.0615 58.8272C6.94222 58.8272 1.1709 53.056 1.1709 45.9366Z" fill="#F53878"/>
<path d="M1.1709 10.907C1.1709 7.49975 1.1709 5.79613 1.83399 4.49467C2.41727 3.3499 3.348 2.4192 4.49276 1.83592C5.79422 1.17279 7.49785 1.17279 10.9051 1.17279H49.0964C52.5036 1.17279 54.2074 1.17279 55.5086 1.83592C56.6535 2.4192 57.5842 3.3499 58.1673 4.49467C58.8306 5.79613 58.8306 7.49975 58.8306 10.907V17.2198C58.8306 20.6271 58.8306 22.3308 58.1673 23.6323C57.5842 24.777 56.6535 25.7076 55.5086 26.291C54.2074 26.9541 52.5036 26.9541 49.0964 26.9541H10.9051C7.49785 26.9541 5.79422 26.9541 4.49276 26.291C3.348 25.7076 2.41727 24.777 1.83399 23.6323C1.1709 22.3308 1.1709 20.6271 1.1709 17.2198V10.907Z" fill="#FCB500"/>
</svg>
